<mxfile host="app.diagrams.net" modified="2023-10-14T12:47:07.404Z" agent="Mozilla/5.0 (X11; Ubuntu; Linux x86_64; rv:109.0) Gecko/20100101 Firefox/118.0" version="21.7.1" etag="dqPF3J9zOdE-k5CeXCw1" type="github">
  <diagram name="Page-1" id="q8hfxHNaJwYTXuEGADpx">
    <mxGraphModel>
      <root>
        <mxCell id="0" />
        <mxCell id="1" parent="0" />
      </root>
    </mxGraphModel>
  </diagram>
</mxfile>
